<?xml version="1.0" encoding="UTF-8" standalone="no"?>
<!-- Generator: Adobe Illustrator 19.0.0, SVG Export Plug-In . SVG Version: 6.00 Build 0)  -->

<svg
   xmlns:dc="http://purl.org/dc/elements/1.1/"
   xmlns:cc="http://creativecommons.org/ns#"
   xmlns:rdf="http://www.w3.org/1999/02/22-rdf-syntax-ns#"
   xmlns:svg="http://www.w3.org/2000/svg"
   xmlns="http://www.w3.org/2000/svg"
   xmlns:sodipodi="http://sodipodi.sourceforge.net/DTD/sodipodi-0.dtd"
   xmlns:inkscape="http://www.inkscape.org/namespaces/inkscape"
   version="1.1"
   id="Layer_1"
   x="0px"
   y="0px"
   viewBox="0 0 116 126.0009"
   xml:space="preserve"
   sodipodi:docname="water-tap.svg"
   width="116"
   height="126.0009"
   inkscape:version="0.92.3 (2405546, 2018-03-11)"><metadata
   id="metadata40"><rdf:RDF><cc:Work
       rdf:about=""><dc:format>image/svg+xml</dc:format><dc:type
         rdf:resource="http://purl.org/dc/dcmitype/StillImage" /><dc:title /></cc:Work></rdf:RDF></metadata><defs
   id="defs38" /><sodipodi:namedview
   pagecolor="#ffffff"
   bordercolor="#666666"
   borderopacity="1"
   objecttolerance="10"
   gridtolerance="10"
   guidetolerance="10"
   inkscape:pageopacity="0"
   inkscape:pageshadow="2"
   inkscape:window-width="1920"
   inkscape:window-height="1016"
   id="namedview36"
   showgrid="false"
   fit-margin-top="0"
   fit-margin-left="0"
   fit-margin-right="0"
   fit-margin-bottom="0"
   inkscape:zoom="20.977778"
   inkscape:cx="50.632748"
   inkscape:cy="119.14197"
   inkscape:window-x="0"
   inkscape:window-y="27"
   inkscape:window-maximized="1"
   inkscape:current-layer="Layer_1" />

<g
   id="g5"
   transform="matrix(0.71111111,0,0,0.71111111,-32,-117.9991)"
   style="stroke-width:1.40625">
</g>
<g
   id="g7"
   transform="matrix(0.71111111,0,0,0.71111111,-32,-117.9991)"
   style="stroke-width:1.40625">
</g>
<g
   id="g9"
   transform="matrix(0.71111111,0,0,0.71111111,-32,-117.9991)"
   style="stroke-width:1.40625">
</g>
<g
   id="g11"
   transform="matrix(0.71111111,0,0,0.71111111,-32,-117.9991)"
   style="stroke-width:1.40625">
</g>
<g
   id="g13"
   transform="matrix(0.71111111,0,0,0.71111111,-32,-117.9991)"
   style="stroke-width:1.40625">
</g>
<g
   id="g15"
   transform="matrix(0.71111111,0,0,0.71111111,-32,-117.9991)"
   style="stroke-width:1.40625">
</g>
<g
   id="g17"
   transform="matrix(0.71111111,0,0,0.71111111,-32,-117.9991)"
   style="stroke-width:1.40625">
</g>
<g
   id="g19"
   transform="matrix(0.71111111,0,0,0.71111111,-32,-117.9991)"
   style="stroke-width:1.40625">
</g>
<g
   id="g21"
   transform="matrix(0.71111111,0,0,0.71111111,-32,-117.9991)"
   style="stroke-width:1.40625">
</g>
<g
   id="g23"
   transform="matrix(0.71111111,0,0,0.71111111,-32,-117.9991)"
   style="stroke-width:1.40625">
</g>
<g
   id="g25"
   transform="matrix(0.71111111,0,0,0.71111111,-32,-117.9991)"
   style="stroke-width:1.40625">
</g>
<g
   id="g27"
   transform="matrix(0.71111111,0,0,0.71111111,-32,-117.9991)"
   style="stroke-width:1.40625">
</g>
<g
   id="g29"
   transform="matrix(0.71111111,0,0,0.71111111,-32,-117.9991)"
   style="stroke-width:1.40625">
</g>
<g
   id="g31"
   transform="matrix(0.71111111,0,0,0.71111111,-32,-117.9991)"
   style="stroke-width:1.40625">
</g>
<g
   id="g33"
   transform="matrix(0.71111111,0,0,0.71111111,-32,-117.9991)"
   style="stroke-width:1.40625">
</g>
<path
   id="path1512"
   d="m 28.927016,106.59069 c -2.31721,-6.46332 -7.227878,-12.26815 -12.426089,-16.67245 -5.198219,4.40541 -10.1088862,10.20913 -12.4260937,16.67245 -1.433173,3.99726 -1.5741227,8.33617 0.4431444,12.17104 2.3205899,4.41007 6.9989833,7.23917 11.9818183,7.23917 4.982842,0 9.662356,-2.8291 11.981821,-7.23917 2.018393,-3.83487 1.87632,-8.17378 0.443146,-12.17104 z m -4.435961,10.07035 c -1.543669,2.93405 -4.679512,4.8295 -7.990128,4.8295 -1.942844,0 -3.823675,-0.65291 -5.359463,-1.78492 0.466824,0.0603 0.938164,0.0931 1.414006,0.0931 4.13827,0 8.057793,-2.36793 9.985976,-6.03366 1.580889,-3.00504 1.444446,-6.12622 0.841189,-8.61026 0.513054,0.99223 0.948305,1.97999 1.297865,2.95755 0.796073,2.22249 1.410614,5.50947 -0.189445,8.54822 z"
   inkscape:connector-curvature="0"
   style="stroke-width:0.99999988" /><path
   style="color:#000000;font-style:normal;font-variant:normal;font-weight:normal;font-stretch:normal;font-size:medium;line-height:normal;font-family:sans-serif;font-variant-ligatures:normal;font-variant-position:normal;font-variant-caps:normal;font-variant-numeric:normal;font-variant-alternates:normal;font-feature-settings:normal;text-indent:0;text-align:start;text-decoration:none;text-decoration-line:none;text-decoration-style:solid;text-decoration-color:#000000;letter-spacing:normal;word-spacing:normal;text-transform:none;writing-mode:lr-tb;direction:ltr;text-orientation:mixed;dominant-baseline:auto;baseline-shift:baseline;text-anchor:start;white-space:normal;shape-padding:0;clip-rule:nonzero;display:inline;overflow:visible;visibility:visible;opacity:1;isolation:auto;mix-blend-mode:normal;color-interpolation:sRGB;color-interpolation-filters:linearRGB;solid-color:#000000;solid-opacity:1;vector-effect:none;fill-opacity:1;fill-rule:nonzero;stroke:none;stroke-width:4;stroke-linecap:butt;stroke-linejoin:miter;stroke-miterlimit:4;stroke-dasharray:none;stroke-dashoffset:0;stroke-opacity:1;color-rendering:auto;image-rendering:auto;shape-rendering:auto;text-rendering:auto;enable-background:accumulate"
   d="M 47,2 C 45.489473,2 44.084071,2.4408531 42.96875,3.2773438 41.853429,4.1138344 41,5.4533963 41,7 41,8.5466037 41.853429,9.8861656 42.96875,10.722656 44.084071,11.559147 45.489473,12 47,12 H 66 V 25.697266 C 62.32251,26.466036 58.878759,27.903439 55.925781,30 H 16 C 7.1871332,30 0,37.187134 0,46 V 78 H 32 V 62 h 23.927734 c 4.523754,3.211809 10.183113,4.991592 16.070313,5 H 72 72.002 c 5.889269,-0.0072 11.550793,-1.787115 16.076172,-5 H 110 c 3.28941,0 6,-2.710594 6,-6 V 36 c 0,-3.289406 -2.71059,-6 -6,-6 H 88.070312 C 85.118179,27.904057 81.676338,26.466205 78,25.697266 V 12 h 19 c 1.510527,0 2.915929,-0.440853 4.03125,-1.277344 C 102.14657,9.8861656 103,8.5466037 103,7 103,5.4533963 102.14657,4.1138344 101.03125,3.2773438 99.915929,2.4408531 98.510527,2 97,2 Z"
   id="path1523"
   inkscape:connector-curvature="0"
   sodipodi:nodetypes="ssssscccssccccccccsssscccssssss" /></svg>